<svg width="35" height="40" viewBox="0 0 35 40" fill="none" xmlns="http://www.w3.org/2000/svg">
<path d="M33.0457 13.702C35.0916 11.3095 34.1586 8.51509 33.0457 7.15617L28.1354 1.41424C26.0732 -0.978226 23.6999 0.11274 22.5378 1.41424L19.7553 4.68714H15.5162C12.4064 4.68714 10.606 6.60112 9.68939 8.80219L2.42226 17.3002V24.9561L1.26017 26.2959C-0.785751 28.7075 0.147191 31.4828 1.26017 32.8417L6.17039 38.5837C7.05423 39.6172 8.00354 40 8.90375 40C10.0658 40 11.1297 39.3301 11.768 38.5837L16.1872 33.3968H22.0631C24.8456 33.3968 26.2532 31.368 26.7606 29.3774C28.6101 28.8032 29.6249 27.1572 30.0341 25.5495C32.571 24.7839 33.5203 21.9703 33.5203 19.9989V14.257H32.5546L33.0457 13.702ZM30.2468 19.9989C30.2468 20.8602 29.9359 21.9129 28.6101 21.9129H26.9734V23.8269C26.9734 24.6882 26.6624 25.7409 25.3366 25.7409H23.6999V27.6549C23.6999 28.5161 23.3889 29.5688 22.0631 29.5688H14.8451L9.47661 35.8467C8.96922 36.4017 8.67461 36.0763 8.49457 35.8658L3.60071 30.1622C3.12606 29.5688 3.4043 29.2243 3.58435 29.0138L5.69574 26.5256V18.8697L8.96922 15.0418V18.085C8.96922 20.4009 10.2786 23.8269 13.8794 23.8269C17.4803 23.8269 18.7897 20.4009 18.7897 18.085H30.2468V19.9989ZM30.7215 10.9841L27.939 14.257H15.5162V18.085C15.5162 18.9463 15.2052 19.9989 13.8794 19.9989C12.5537 19.9989 12.2427 18.9463 12.2427 18.085V12.343C12.2427 11.4626 12.5209 8.51509 15.5162 8.51509H21.0975L24.8292 4.15123C25.3366 3.59618 25.6312 3.92155 25.8113 4.13209L30.7051 9.83574C31.1798 10.4291 30.9015 10.7736 30.7215 10.9841Z" fill="#F8F8F8"/>
</svg>
