<svg width="39" height="37" viewBox="0 0 39 37" fill="none" xmlns="http://www.w3.org/2000/svg">
<path d="M38.4798 6.16834V37H0V6.16834H12.0249V3.08517C12.0249 2.6516 12.0876 2.25015 12.2128 1.88081C12.3381 1.51147 12.5072 1.19031 12.7201 0.917322C12.9331 0.644333 13.1899 0.419519 13.4905 0.24288C13.7911 0.0662399 14.1043 -0.0140509 14.4299 0.00200727H24.0499C24.3881 0.00200727 24.7012 0.082298 24.9893 0.24288C25.2774 0.403461 25.5279 0.620246 25.7409 0.893235C25.9538 1.16622 26.1292 1.49542 26.267 1.88081C26.4048 2.26621 26.4674 2.66766 26.4549 3.08517V6.16834H38.4798ZM14.4299 6.16834H24.0499V3.08517H14.4299V6.16834ZM2.40499 9.2515V13.7076L14.4299 21.3915V18.501H24.0499V21.3915L36.0748 13.7076V9.2515H2.40499ZM16.8349 21.5842V24.6673H21.6449V21.5842H16.8349ZM36.0748 33.9168V17.128L24.0499 24.86V27.7505H14.4299V24.86L2.40499 17.128V33.9168H36.0748Z" fill="#F8F8F8"/>
</svg>
