<svg width="17" height="17" viewBox="0 0 17 17" fill="none" xmlns="http://www.w3.org/2000/svg">
<path d="M2.00312 11.8625C2.12771 12.4335 2.59107 12.8679 3.13951 12.8679H13.8785C14.4269 12.8679 14.8898 12.4333 15.0191 11.8635C15.1843 11.1347 15.3578 10.4687 15.3578 8.33626C15.3578 6.20385 15.1843 5.53782 15.0191 4.80901C14.8898 4.23922 14.4269 3.80469 13.8785 3.80469H3.13951C2.59107 3.80469 2.12771 4.23898 2.00312 4.80996C1.83658 5.57329 1.66016 6.26913 1.66016 8.33626C1.66016 10.4034 1.83658 11.0992 2.00312 11.8625Z" stroke="#036DF6" stroke-width="0.612281" stroke-linecap="round" stroke-linejoin="round"/>
<path d="M4.04883 8.32461L4.7156 8.31641" stroke="#036DF6" stroke-width="0.612281" stroke-linecap="round" stroke-linejoin="round"/>
<path d="M12.3027 8.32461L12.9695 8.31641" stroke="#036DF6" stroke-width="0.612281" stroke-linecap="round" stroke-linejoin="round"/>
<path d="M9.8193 6.80808C9.8193 6.80808 9.32643 6.22064 8.52703 6.29405C7.72764 6.36747 7.3423 6.89257 7.3423 7.41913C7.3423 8.95491 9.8193 7.8906 9.8193 9.46548C9.8193 10.2774 8.17621 10.8505 7.19727 9.89532M8.62499 5.51758V6.2877M8.62499 10.3851V11.1552" stroke="#036DF6" stroke-width="0.612281" stroke-linecap="round" stroke-linejoin="round"/>
</svg>
