<svg width="15" height="16" viewBox="0 0 15 16" fill="none" xmlns="http://www.w3.org/2000/svg">
<g clip-path="url(#clip0_1304_555)">
<path d="M1.57809 10.0154C1.22619 9.7922 1.22012 8.67614 1.16552 8.29986C0.924248 6.70973 0.77029 5.10631 0.704406 3.49757C0.704406 3.19145 0.54059 2.40063 0.746877 2.22206C1.80557 1.87256 2.91491 1.72356 4.02319 1.78201C4.15061 1.78201 4.13847 1.96696 4.15667 2.11364C4.16718 2.39412 4.1976 2.67338 4.24768 2.9491C4.55104 4.10981 5.8555 3.58685 6.75952 3.65701C7.5399 3.6967 8.32178 3.69031 9.10148 3.63787C9.6538 3.65759 10.2047 3.70869 10.7518 3.79094C11.0673 3.86109 11.1037 3.93124 11.1401 4.34578C11.1886 5.02818 11.0309 5.35343 11.3221 5.37257C11.3484 5.3752 11.375 5.37232 11.4002 5.36411C11.4255 5.3559 11.4489 5.34252 11.4692 5.32473C11.4895 5.30694 11.5063 5.28511 11.5185 5.26048C11.5308 5.23585 11.5382 5.20892 11.5405 5.18124C11.5673 4.84382 11.5673 4.50464 11.5405 4.16721C11.548 3.98659 11.4968 3.80867 11.3953 3.66265C11.2939 3.51664 11.1483 3.4112 10.9823 3.36364C10.3618 3.23274 9.73331 3.1475 9.10148 3.10854C8.3486 3.13332 7.59499 3.11203 6.84446 3.04476C6.58964 3.01288 6.04359 3.04476 5.55821 3.04476C4.95148 3.04476 4.90294 3.04476 4.84834 2.40701C4.79373 1.76925 4.76946 1.27181 4.21128 1.08686C2.90075 0.967652 1.58156 1.1617 0.352505 1.65446C-0.18748 2.09451 0.0552102 2.92997 0.0916137 3.49757C0.219835 5.12986 0.440672 6.75264 0.752944 8.35726C0.843953 8.87384 0.862155 10.009 1.40821 10.3215C1.42694 10.3426 1.45009 10.3587 1.47581 10.3687C1.50153 10.3787 1.52912 10.3822 1.55636 10.379C1.5836 10.3757 1.60975 10.3659 1.63272 10.3501C1.65569 10.3344 1.67485 10.3133 1.68866 10.2884C1.70248 10.2635 1.71057 10.2355 1.71229 10.2068C1.714 10.178 1.70931 10.1492 1.69857 10.1227C1.68782 10.0962 1.67134 10.0727 1.65042 10.0541C1.6295 10.0354 1.60474 10.0222 1.57809 10.0154Z" fill="#036DF6"/>
<path d="M14.5629 7.92917C14.555 7.79243 14.5203 7.65889 14.4607 7.53702C14.4012 7.41516 14.3182 7.30763 14.217 7.22126C13.9526 7.02114 13.6598 6.86617 13.3494 6.76208C11.3715 6.08606 5.66222 5.35264 4.85527 5.3654C3.81777 5.3654 3.43554 5.76081 3.21105 6.27739C2.88323 7.2725 2.63364 8.29421 2.46478 9.33223C2.27441 10.484 2.15082 11.6468 2.09467 12.8144C2.09467 12.9738 2.04007 13.248 2.20388 13.3692C2.22252 13.3841 2.24379 13.395 2.26646 13.4011C2.28914 13.4073 2.31275 13.4086 2.33591 13.405C2.35908 13.4015 2.38134 13.3931 2.40138 13.3804C2.42143 13.3676 2.43885 13.3508 2.45264 13.331C2.51377 13.012 2.52809 12.6851 2.49511 12.3616C2.64923 10.3636 3.05105 8.39545 3.69036 6.50698C3.75064 6.35991 3.84695 6.23227 3.96946 6.13708C4.24213 5.98817 4.54883 5.92193 4.85527 5.94575C5.37099 5.94575 12.7002 6.9279 13.7863 7.78887C13.8773 7.8654 13.8712 8.0057 13.8712 8.14601C13.8712 8.28631 13.9562 7.50825 13.1735 13.248C13.1735 13.4521 13.131 14.396 13.0097 14.4853C12.2218 14.521 11.4324 14.489 10.6495 14.3896C4.12114 13.5924 3.72677 13.6626 3.0715 13.1141C3.02932 13.0795 2.97599 13.0635 2.92279 13.0695C2.86958 13.0754 2.82066 13.1029 2.78634 13.146C2.52545 13.4968 3.50834 13.8794 3.91485 13.9878C3.98766 13.9878 12.0389 15.2633 13.0157 15.1294C13.8105 15.021 13.6771 13.9623 13.7802 13.3565C13.8833 12.9483 14.6053 8.42024 14.5629 7.92917Z" fill="#036DF6"/>
<path d="M9.33243 2.45873C11.6077 2.68832 12.3297 2.60542 11.8503 4.40388C11.8428 4.43068 11.8403 4.45879 11.8431 4.48659C11.8458 4.5144 11.8538 4.54136 11.8665 4.56594C11.8791 4.59051 11.8963 4.61222 11.9169 4.62983C11.9376 4.64744 11.9614 4.6606 11.9869 4.66855C12.0383 4.68462 12.0938 4.67853 12.141 4.65162C12.1644 4.63829 12.1851 4.62026 12.2018 4.59854C12.2186 4.57683 12.2311 4.55186 12.2386 4.52506C12.6027 3.34521 12.633 2.49062 11.456 2.09521C10.5087 1.8065 9.52305 1.68157 8.53762 1.72531C7.77864 1.72931 7.02068 1.7847 6.26847 1.89113C6.02578 1.97404 6.01971 2.13986 6.11072 2.25465C6.20173 2.36945 7.74281 2.50975 9.33243 2.45873Z" fill="#036DF6"/>
<path d="M7.57818 8.54211C7.57818 8.3763 7.26268 8.27426 7.22628 8.48472C7.07067 9.45809 6.85173 10.4191 6.57101 11.361C6.4436 11.8967 6.52248 12.375 7.04426 12.4707C7.56604 12.5663 8.29411 12.1263 8.78556 11.8903C9.99901 11.2526 11.1093 10.7296 10.0293 9.83676C7.69952 7.92349 7.96041 8.10844 7.94221 8.09569C7.91149 8.07137 7.87506 8.05627 7.83681 8.05202C7.79856 8.04777 7.75993 8.05451 7.72504 8.07154C7.69016 8.08856 7.66033 8.11523 7.63873 8.14869C7.61714 8.18214 7.6046 8.22114 7.60245 8.2615C7.60245 8.45283 9.73205 10.3342 9.84733 10.4745C9.84733 10.4745 9.81093 10.5192 9.78059 10.5383C9.62891 10.6595 7.7966 11.6161 7.62065 11.6862C7.4447 11.7564 7.13527 11.5906 7.1474 11.4949C7.33955 10.5192 7.48333 9.53356 7.57818 8.54211Z" fill="#036DF6"/>
</g>
<defs>
<clipPath id="clip0_1304_555">
<rect width="14.5614" height="15.3061" fill="white" transform="translate(0 0.449219)"/>
</clipPath>
</defs>
</svg>
