<svg width="14" height="14" viewBox="0 0 14 14" fill="none" xmlns="http://www.w3.org/2000/svg">
<path d="M0.900391 8.67016V6.82616C0.900391 5.23487 1.53253 3.70874 2.65775 2.58353C3.78297 1.45831 5.30909 0.826172 6.90039 0.826172C8.49169 0.826172 10.0178 1.45831 11.143 2.58353C12.2682 3.70874 12.9004 5.23487 12.9004 6.82616V8.67016" stroke="#036DF6" stroke-width="0.8" stroke-linecap="round" stroke-linejoin="round"/>
<path d="M3.90039 12.8255H2.23372C1.8801 12.8255 1.54096 12.685 1.29091 12.435C1.04087 12.1849 0.900391 11.8458 0.900391 11.4922V8.82552C0.900391 8.4719 1.04087 8.13276 1.29091 7.88271C1.54096 7.63266 1.8801 7.49219 2.23372 7.49219H3.90039C4.0772 7.49219 4.24677 7.56243 4.3718 7.68745C4.49682 7.81247 4.56706 7.98204 4.56706 8.15885V12.1588C4.56706 12.3357 4.49682 12.5052 4.3718 12.6303C4.24677 12.7553 4.0772 12.8255 3.90039 12.8255Z" stroke="#036DF6" stroke-width="0.8" stroke-linecap="round" stroke-linejoin="round"/>
<path d="M9.89909 12.8255H11.5658C11.9194 12.8255 12.2585 12.685 12.5086 12.435C12.7586 12.1849 12.8991 11.8458 12.8991 11.4922V8.82552C12.8991 8.4719 12.7586 8.13276 12.5086 7.88271C12.2585 7.63266 11.9194 7.49219 11.5658 7.49219H9.89909C9.72228 7.49219 9.55271 7.56243 9.42768 7.68745C9.30266 7.81247 9.23242 7.98204 9.23242 8.15885V12.1588C9.23242 12.3357 9.30266 12.5052 9.42768 12.6303C9.55271 12.7553 9.72228 12.8255 9.89909 12.8255Z" stroke="#036DF6" stroke-width="0.8" stroke-linecap="round" stroke-linejoin="round"/>
</svg>
