<svg width="16" height="17" viewBox="0 0 16 17" fill="none" xmlns="http://www.w3.org/2000/svg">
<path d="M1 5.70312H14.74L14.0229 14.3392C13.9842 14.8066 13.7873 15.2412 13.4709 15.5578C13.1546 15.8744 12.7417 16.05 12.3132 16.0502H3.42683C2.99834 16.05 2.5854 15.8744 2.26906 15.5578C1.95272 15.2412 1.75583 14.8066 1.71706 14.3392L1 5.70312Z" stroke="#036DF6" stroke-width="0.8" stroke-linejoin="round"/>
<path d="M4.43555 7.5845V4.76257C4.43555 3.76467 4.79745 2.80765 5.44163 2.10203C6.08582 1.39641 6.95953 1 7.87055 1C8.78157 1 9.65527 1.39641 10.2995 2.10203C10.9436 2.80765 11.3055 3.76467 11.3055 4.76257V7.5845" stroke="#036DF6" stroke-width="0.8" stroke-linecap="round"/>
</svg>
