<svg width="16" height="20" viewBox="0 0 16 20" fill="none" xmlns="http://www.w3.org/2000/svg">
<g clip-path="url(#clip0_1304_566)">
<path d="M4.38867 5.79222L7.52311 3.60547L10.6576 5.79222H4.38867Z" stroke="#036DF6" stroke-width="0.8" stroke-linecap="round" stroke-linejoin="round"/>
<path d="M4.38867 10.8945H10.6576" stroke="#036DF6" stroke-width="0.8" stroke-linecap="round" stroke-linejoin="round"/>
<path d="M5.64258 7.25V10.8946" stroke="#036DF6" stroke-width="0.8" stroke-linecap="round" stroke-linejoin="round"/>
<path d="M7.52344 7.25V10.8946" stroke="#036DF6" stroke-width="0.8" stroke-linecap="round" stroke-linejoin="round"/>
<path d="M9.4043 7.25V10.8946" stroke="#036DF6" stroke-width="0.8" stroke-linecap="round" stroke-linejoin="round"/>
<path d="M7.52243 0.68946C8.87871 0.687421 10.2074 1.13497 11.3527 1.97964C14.3304 4.16639 14.5498 8.70755 12.1802 12.0241C10.8265 13.9165 9.33524 15.6699 7.72304 17.265C7.66671 17.3196 7.59573 17.3495 7.52243 17.3495C7.44913 17.3495 7.37815 17.3196 7.32183 17.265C5.70962 15.6699 4.2184 13.9165 2.86465 12.0241C0.495017 8.70755 0.714427 4.18097 3.69215 1.97964C4.83747 1.13497 6.16615 0.687421 7.52243 0.68946Z" stroke="#036DF6" stroke-width="0.8" stroke-linecap="round" stroke-linejoin="round"/>
</g>
<defs>
<clipPath id="clip0_1304_566">
<rect width="15.0453" height="19.5918" fill="white" transform="translate(0 0.224609)"/>
</clipPath>
</defs>
</svg>
