<svg width="18" height="22" viewBox="0 0 18 22" fill="none" xmlns="http://www.w3.org/2000/svg">
<path d="M5.27013 11.0372L3.37823 12.2921L1.48633 11.0372V8.68429L3.37823 7.50781L5.27013 8.68429V11.0372Z" stroke="#036DF6" stroke-width="0.8" stroke-miterlimit="10" stroke-linecap="round" stroke-linejoin="round"/>
<path d="M10.7428 7.74262L8.85089 8.91909L6.95898 7.74262V5.38967L8.85089 4.13477L10.7428 5.38967V7.74262Z" stroke="#036DF6" stroke-width="0.8" stroke-miterlimit="10" stroke-linecap="round" stroke-linejoin="round"/>
<path d="M8.85167 1.46875L4.93273 3.97856V6.01786L3.3786 4.99817L1.35156 6.33159" stroke="#036DF6" stroke-width="0.8" stroke-miterlimit="10" stroke-linecap="round" stroke-linejoin="round"/>
<path d="M5.27148 8.68462L6.96068 7.74023" stroke="#036DF6" stroke-width="0.8" stroke-miterlimit="10" stroke-linecap="round" stroke-linejoin="round"/>
<path d="M11.9583 13.0762L15.4719 15.1939L8.85018 19.1155L2.22852 15.1939L5.80962 13.0762" stroke="#036DF6" stroke-width="0.8" stroke-miterlimit="10" stroke-linecap="round" stroke-linejoin="round"/>
<path d="M8.85156 11.2734V15.3513" stroke="#036DF6" stroke-width="0.8" stroke-miterlimit="10" stroke-linecap="round" stroke-linejoin="round"/>
<path d="M7.5 13.7812L8.85136 15.35L10.2027 13.7812" stroke="#036DF6" stroke-width="0.8" stroke-miterlimit="10" stroke-linecap="round" stroke-linejoin="round"/>
<path d="M12.4316 11.0372L14.3237 12.2921L16.2156 11.0372V8.68429L14.3237 7.50781L12.4316 8.68429V11.0372Z" stroke="#036DF6" stroke-width="0.8" stroke-miterlimit="10" stroke-linecap="round" stroke-linejoin="round"/>
<path d="M8.85156 1.46875L12.7705 3.97856V6.01786L14.3246 4.99817L16.3517 6.33159" stroke="#036DF6" stroke-width="0.8" stroke-miterlimit="10" stroke-linecap="round" stroke-linejoin="round"/>
<path d="M12.4334 8.68532L10.7441 7.74414" stroke="#036DF6" stroke-width="0.8" stroke-miterlimit="10" stroke-linecap="round" stroke-linejoin="round"/>
</svg>
