<svg width="16" height="18" viewBox="0 0 16 18" fill="none" xmlns="http://www.w3.org/2000/svg">
<path d="M2.51953 1.22461V3.30736C2.51953 3.79069 2.69161 4.25422 2.99792 4.59599C3.30423 4.93776 3.71968 5.12976 4.15286 5.12976C4.58605 5.12976 5.0015 4.93776 5.30781 4.59599C5.61412 4.25422 5.7862 3.79069 5.7862 3.30736V1.22461H2.51953Z" stroke="#036DF6" stroke-width="0.8" stroke-linecap="round" stroke-linejoin="round"/>
<path d="M6.48503 8.51439C6.48503 7.96201 6.28836 7.43225 5.93829 7.04166C5.58822 6.65107 5.11343 6.43164 4.61836 6.43164H3.68503C3.18996 6.43164 2.71516 6.65107 2.36509 7.04166C2.01503 7.43225 1.81836 7.96201 1.81836 8.51439" stroke="#036DF6" stroke-width="0.8" stroke-linecap="round" stroke-linejoin="round"/>
<path d="M14.8848 16.8459V11.639C14.8848 11.3628 14.7864 11.098 14.6114 10.9027C14.4364 10.7074 14.199 10.5977 13.9514 10.5977H1.8181C1.57056 10.5977 1.33317 10.7074 1.15813 10.9027C0.983099 11.098 0.884766 11.3628 0.884766 11.639V16.8459" stroke="#036DF6" stroke-width="0.8" stroke-linecap="round" stroke-linejoin="round"/>
<path d="M6.48438 12.6797V15.8038" stroke="#036DF6" stroke-width="0.8" stroke-linecap="round" stroke-linejoin="round"/>
<path d="M8.35156 12.6797V15.8038" stroke="#036DF6" stroke-width="0.8" stroke-linecap="round" stroke-linejoin="round"/>
<path d="M6.48438 14.2422H8.35104" stroke="#036DF6" stroke-width="0.8" stroke-linecap="round" stroke-linejoin="round"/>
<path d="M2.51953 3.30664H5.7862" stroke="#036DF6" stroke-width="0.8" stroke-linecap="round" stroke-linejoin="round"/>
<path d="M10.2188 6.43164H13.9521V8.51439H10.2188V6.43164Z" stroke="#036DF6" stroke-width="0.8" stroke-linecap="round" stroke-linejoin="round"/>
<path d="M12.0859 8.51367V10.5964" stroke="#036DF6" stroke-width="0.8" stroke-linecap="round" stroke-linejoin="round"/>
<path d="M13.9508 3.30736H12.5508V2.78667C12.5508 2.37239 12.6983 1.97507 12.9608 1.68213C13.2234 1.38918 13.5795 1.22461 13.9508 1.22461V4.34873" stroke="#036DF6" stroke-width="0.8" stroke-linecap="round" stroke-linejoin="round"/>
<path d="M9.75 2.00564C9.75 1.7985 9.82375 1.59984 9.95502 1.45337C10.0863 1.3069 10.2643 1.22461 10.45 1.22461C10.6357 1.22461 10.8137 1.3069 10.945 1.45337C11.0763 1.59984 11.15 1.7985 11.15 2.00564C11.1496 2.25794 11.0726 2.50266 10.9316 2.69989L9.75 4.34873H11.15" stroke="#036DF6" stroke-width="0.8" stroke-linecap="round" stroke-linejoin="round"/>
</svg>
