<svg width="17" height="17" viewBox="0 0 17 17" fill="none" xmlns="http://www.w3.org/2000/svg">
<path d="M12.7405 13.3926H4.2616C3.90139 13.3926 3.60938 13.6846 3.60938 14.0448V15.3492C3.60938 15.7094 3.90139 16.0014 4.2616 16.0014H12.7405C13.1008 16.0014 13.3928 15.7094 13.3928 15.3492V14.0448C13.3928 13.6846 13.1008 13.3926 12.7405 13.3926Z" stroke="#036DF6" stroke-width="0.8" stroke-linecap="round" stroke-linejoin="round"/>
<path d="M4.91406 13.3922V11.4355" stroke="#036DF6" stroke-width="0.8" stroke-linecap="round" stroke-linejoin="round"/>
<path d="M12.0859 13.3922V11.4355" stroke="#036DF6" stroke-width="0.8" stroke-linecap="round" stroke-linejoin="round"/>
<path d="M4.91406 14.6973H5.56629" stroke="#036DF6" stroke-width="0.8" stroke-linecap="round" stroke-linejoin="round"/>
<path d="M6.86914 14.6973H7.52137" stroke="#036DF6" stroke-width="0.8" stroke-linecap="round" stroke-linejoin="round"/>
<path d="M9.47804 1H7.52137C7.16116 1 6.86914 1.29201 6.86914 1.65222V5.56551C6.86914 5.92571 7.16116 6.21772 7.52137 6.21772H9.47804C9.83827 6.21772 10.1303 5.92571 10.1303 5.56551V1.65222C10.1303 1.29201 9.83827 1 9.47804 1Z" stroke="#036DF6" stroke-width="0.8" stroke-linecap="round" stroke-linejoin="round"/>
<path d="M12.7382 2.95703H14.6948C14.8678 2.95703 15.0337 3.02575 15.156 3.14806C15.2783 3.27038 15.3471 3.43627 15.3471 3.60925V5.56589H12.0859V3.60925C12.0859 3.43627 12.1547 3.27038 12.277 3.14806C12.3993 3.02575 12.5652 2.95703 12.7382 2.95703Z" stroke="#036DF6" stroke-width="0.8" stroke-linecap="round" stroke-linejoin="round"/>
<path d="M15.4734 7.52305C15.5633 7.52292 15.6517 7.49983 15.7302 7.456C15.8087 7.41218 15.8748 7.34904 15.9221 7.2726C15.9693 7.1961 15.9963 7.10882 16.0005 7.019C16.0046 6.92918 15.9857 6.8398 15.9456 6.75931L15.3488 5.56641H12.0877L11.4909 6.75931C11.4509 6.8398 11.4319 6.92918 11.4361 7.019C11.4402 7.10882 11.4672 7.1961 11.5145 7.2726C11.5618 7.34904 11.6278 7.41218 11.7063 7.456C11.7848 7.49983 11.8732 7.52292 11.9631 7.52305H15.4734Z" stroke="#036DF6" stroke-width="0.8" stroke-linecap="round" stroke-linejoin="round"/>
<path d="M4.91336 2.95703H1.65223C1.29201 2.95703 1 3.24904 1 3.60925V5.56589C1 5.9261 1.29201 6.21811 1.65223 6.21811H4.91336C5.27357 6.21811 5.56558 5.9261 5.56558 5.56589V3.60925C5.56558 3.24904 5.27357 2.95703 4.91336 2.95703Z" stroke="#036DF6" stroke-width="0.8" stroke-linecap="round" stroke-linejoin="round"/>
<path d="M1.65039 7.52148H4.91152" stroke="#036DF6" stroke-width="0.8" stroke-linecap="round" stroke-linejoin="round"/>
<path d="M2.30469 7.52123L2.62966 6.2168" stroke="#036DF6" stroke-width="0.8" stroke-linecap="round" stroke-linejoin="round"/>
<path d="M4.25856 7.52123L3.93359 6.2168" stroke="#036DF6" stroke-width="0.8" stroke-linecap="round" stroke-linejoin="round"/>
<path d="M10.8529 9.53793C10.1566 9.07382 9.33848 8.82617 8.50167 8.82617C7.66487 8.82617 6.84672 9.07382 6.15039 9.53793" stroke="#036DF6" stroke-width="0.8" stroke-linecap="round" stroke-linejoin="round"/>
<path d="M10.1309 10.9499C9.64879 10.6285 9.08233 10.457 8.50296 10.457C7.92352 10.457 7.35713 10.6285 6.875 10.9499" stroke="#036DF6" stroke-width="0.8" stroke-linecap="round" stroke-linejoin="round"/>
<path d="M8.50037 5.07611C8.41062 5.07611 8.33789 5.00311 8.33789 4.91305C8.33789 4.823 8.41062 4.75 8.50037 4.75" stroke="#036DF6" stroke-width="0.8"/>
<path d="M8.5 5.07611C8.58976 5.07611 8.66248 5.00311 8.66248 4.91305C8.66248 4.823 8.58976 4.75 8.5 4.75" stroke="#036DF6" stroke-width="0.8"/>
</svg>
