<svg width="12" height="16" viewBox="0 0 12 16" fill="none" xmlns="http://www.w3.org/2000/svg">
<path fill-rule="evenodd" clip-rule="evenodd" d="M11.9881 13.6814C11.9254 13.3739 11.7899 13.0879 11.5942 12.8497C11.3495 12.5432 11.0271 12.2993 10.7526 12.0179C10.478 11.7365 10.3109 11.5426 10.0841 11.3175C10.0392 11.2705 9.9913 11.2266 9.94083 11.1862C9.73193 11.0549 9.43946 11.2737 9.63643 11.4864L9.77968 11.6365C9.98858 11.8741 10.1856 12.1367 10.3766 12.3744C10.5675 12.612 10.9078 12.9122 11.1286 13.2186C11.2501 13.3875 11.33 13.5851 11.3614 13.794C11.371 13.9749 11.3267 14.1544 11.2348 14.3079C11.1428 14.4613 11.0077 14.5811 10.8481 14.6507C10.703 14.7559 10.5327 14.8163 10.3565 14.8252C10.1803 14.834 10.0053 14.7909 9.8513 14.7007C9.72193 14.5975 9.60736 14.4754 9.51109 14.338C9.35108 14.0902 9.20749 13.8311 9.08134 13.5626C8.86646 13.1373 8.65159 12.7121 8.48447 12.2681C8.46135 12.1873 8.4293 12.1097 8.38897 12.0367C8.22781 11.7803 7.97713 11.9054 8.03084 12.2118C8.06892 12.3658 8.11882 12.5164 8.18006 12.6621C8.31734 13.0498 8.46656 13.4313 8.62772 13.8127C8.74352 14.114 8.87914 14.4066 9.03359 14.6882C9.15569 14.8978 9.31113 15.0839 9.49318 15.2386C9.74674 15.4098 10.042 15.5009 10.3437 15.5009C10.6454 15.5009 10.9407 15.4098 11.1943 15.2386C11.4649 15.0979 11.6868 14.8723 11.8291 14.5931C11.9714 14.314 12.027 13.9952 11.9881 13.6814Z" fill="#036DF6"/>
<path fill-rule="evenodd" clip-rule="evenodd" d="M8.22156 11.5482C8.23907 11.5192 8.24836 11.4856 8.24836 11.4512C8.24836 11.4169 8.23907 11.3833 8.22156 11.3543C8.07831 11.1104 7.74406 11.4419 7.36803 11.5357C7.03231 11.616 6.69101 11.6683 6.34738 11.692C5.46911 11.7725 4.58434 11.6683 3.74502 11.3856C2.91601 11.1166 2.17432 10.6122 1.60225 9.92847C1.11024 9.28961 0.785019 8.52783 0.658419 7.71772C0.531819 6.9076 0.608184 6.07693 0.880036 5.30702C1.11332 4.52503 1.50199 3.80365 2.02048 3.19035C2.53897 2.57705 3.17553 2.08572 3.88827 1.74869C4.32619 1.55228 4.78221 1.4035 5.24914 1.30468C5.69718 1.19824 6.15816 1.16449 6.61597 1.20463C7.86717 1.38487 9.002 2.06911 9.7794 3.11199C10.5759 4.15827 11.0094 5.45706 11.009 6.79539C11.0023 7.31382 10.9402 7.82983 10.8239 8.33379C10.7145 8.83527 10.5117 9.30918 10.227 9.72836C9.95635 10.0531 9.66092 10.3543 9.34368 10.6289C9.14775 10.8126 8.9238 10.9605 8.68115 11.0666C8.63138 11.0825 8.58963 11.1184 8.56503 11.1665C8.54042 11.2145 8.53496 11.2708 8.54984 11.323C8.56501 11.3752 8.59927 11.4189 8.64512 11.4447C8.69097 11.4705 8.74469 11.4762 8.79456 11.4606C8.94974 11.4106 9.3198 11.198 9.33174 11.2042C9.79479 10.8613 10.2123 10.4554 10.5732 9.99726C10.8965 9.53761 11.1279 9.01438 11.2537 8.45886C11.3935 7.91805 11.4717 7.36175 11.4864 6.80165C11.5188 5.33514 11.0677 3.90177 10.2091 2.74302C9.36744 1.5549 8.11305 0.76184 6.71744 0.535485C6.18605 0.471172 5.64833 0.494383 5.1238 0.604275C4.61244 0.712744 4.1126 0.874043 3.63162 1.08581C2.829 1.46431 2.1135 2.01931 1.53368 2.71313C0.953868 3.40695 0.523307 4.22335 0.271227 5.10691C-0.0151792 5.98346 -0.0760477 6.92361 0.0947529 7.83265C0.265554 8.7417 0.661991 9.58753 1.24413 10.2849C1.8871 11.0255 2.71359 11.5645 3.63162 11.8421C4.53412 12.1158 5.47921 12.2008 6.41304 12.0922C6.77506 12.0574 7.13416 11.9947 7.48741 11.9046C7.7461 11.8204 7.99297 11.7005 8.22156 11.5482Z" fill="#036DF6"/>
<path fill-rule="evenodd" clip-rule="evenodd" d="M9.25413 8.38974C9.33053 8.02023 9.35665 7.64126 9.33172 7.26408C9.34287 6.78407 9.32693 6.30378 9.28397 5.82574C9.26159 5.57873 9.18828 5.33975 9.0691 5.12533C8.92704 4.92064 8.7325 4.76234 8.50804 4.66882C8.21586 4.55022 7.90768 4.48058 7.59483 4.46245H7.45158V4.20605C7.45052 4.09074 7.44054 3.97571 7.42173 3.86209C7.40166 3.62581 7.32706 3.39819 7.20437 3.19882C7.08167 2.99946 6.91456 2.83434 6.71742 2.71768C6.3366 2.52001 5.9113 2.43565 5.48787 2.47378C5.23572 2.48558 4.98739 2.54269 4.75372 2.64263C4.57519 2.71754 4.41871 2.8405 4.30009 2.99909C4.15983 3.20894 4.07912 3.45611 4.06731 3.71201C4.05678 4.01303 4.08692 4.3141 4.15684 4.60628C3.87631 4.60628 3.59578 4.65631 3.31525 4.65631C3.28809 4.65529 3.26104 4.66036 3.2359 4.67117C3.21076 4.68199 3.18811 4.6983 3.16946 4.71902C3.15082 4.73973 3.13661 4.76438 3.12778 4.79131C3.11896 4.81824 3.11572 4.84684 3.11829 4.87519C3.1182 4.92948 3.13793 4.98175 3.17344 5.02128C3.20896 5.06081 3.25756 5.08462 3.30929 5.08781C4.17475 5.08781 5.03424 4.98775 5.89374 4.96274H6.49061L7.53514 5.03153C7.73902 5.05335 7.93952 5.10167 8.13201 5.17536C8.29665 5.22614 8.44115 5.33146 8.54385 5.47554C8.62746 5.67233 8.67019 5.8855 8.66919 6.1009V6.4386C8.28123 6.39482 7.9052 6.38232 7.5232 6.37606H5.98924C5.98924 6.15719 5.92955 5.93831 5.90568 5.7507C5.91489 5.72574 5.9189 5.69901 5.91744 5.67229C5.91598 5.64558 5.90909 5.6195 5.89722 5.59581C5.88534 5.57211 5.86877 5.55136 5.84861 5.53493C5.82845 5.5185 5.80517 5.50678 5.78033 5.50055C5.75759 5.49885 5.73475 5.50188 5.71313 5.50945C5.69151 5.51703 5.67152 5.529 5.65433 5.54469C5.63714 5.56038 5.62307 5.57947 5.61294 5.60088C5.60281 5.62228 5.59682 5.64557 5.5953 5.6694C5.53562 5.89453 5.45206 6.1009 5.40431 6.33854H4.98053H4.10909C3.65547 6.33854 3.20185 6.38232 2.75419 6.43235V6.18845C2.75419 5.76946 2.81388 5.35672 2.86163 4.93772C2.86671 4.89054 2.85393 4.84315 2.82603 4.80573C2.79813 4.76832 2.75734 4.74386 2.71241 4.73761C2.69 4.73315 2.66694 4.73355 2.64468 4.73878C2.62241 4.74401 2.60141 4.75397 2.58295 4.76803C2.5645 4.78209 2.54899 4.79996 2.53738 4.82054C2.52577 4.84112 2.51831 4.86398 2.51545 4.88769C2.3839 5.73184 2.30614 6.58422 2.28267 7.43919C2.26515 7.66603 2.26515 7.89399 2.28267 8.12083C2.29175 8.29751 2.3365 8.47016 2.41398 8.62738C2.51991 8.81217 2.68483 8.95173 2.87954 9.02136C3.22063 9.16149 3.57784 9.254 3.94197 9.29652C4.51961 9.38675 5.10136 9.4452 5.68483 9.47162C6.26931 9.50607 6.85517 9.50607 7.43964 9.47162C7.76312 9.48345 8.08693 9.46251 8.40657 9.40909C8.58439 9.3703 8.74796 9.27918 8.8781 9.14643C9.06929 8.93659 9.19969 8.67418 9.25413 8.38974ZM5.87583 4.44368C5.41624 4.47495 4.96262 4.53124 4.509 4.58127C4.48745 4.37342 4.48745 4.16374 4.509 3.9559C4.52338 3.75586 4.60111 3.56658 4.72984 3.41809C4.8257 3.33523 4.94122 3.2812 5.06409 3.26174C5.21379 3.21801 5.36828 3.19489 5.52368 3.19295C5.83419 3.14544 6.15118 3.18426 6.44286 3.30552C6.57592 3.368 6.69322 3.46216 6.78544 3.58049C6.87766 3.69883 6.94225 3.83808 6.97408 3.98717L7.03973 4.47495H6.52642C6.31155 4.42492 6.09071 4.43118 5.87583 4.44368ZM8.62145 8.19588C8.58869 8.35754 8.51439 8.50675 8.40657 8.62738C8.33116 8.69461 8.23684 8.73414 8.13798 8.73994C7.90213 8.76712 7.66496 8.77964 7.4277 8.77747C6.86579 8.82345 6.30195 8.83806 5.73855 8.82124C5.17153 8.82124 4.59853 8.78372 4.04941 8.72744C3.76848 8.72175 3.48869 8.68824 3.21379 8.62738C3.0586 8.5836 2.91535 8.53983 2.86163 8.43977C2.80883 8.34206 2.77819 8.23293 2.7721 8.12083C2.74321 7.91382 2.73122 7.70461 2.73629 7.49547V6.8701C3.41075 6.8701 4.09119 6.97641 4.77759 7.01394H5.37446C5.40341 7.22606 5.44933 7.43525 5.51174 7.6393C5.51538 7.66654 5.52417 7.69274 5.5376 7.71636C5.55104 7.73998 5.56884 7.76056 5.58997 7.77687C5.6111 7.79318 5.63513 7.80491 5.66065 7.81135C5.68616 7.8178 5.71265 7.81884 5.73855 7.8144C5.7892 7.80519 5.83462 7.77617 5.86564 7.73322C5.89666 7.69028 5.91097 7.63659 5.90568 7.58302C5.9141 7.39841 5.93404 7.21458 5.96536 7.0327C6.56224 6.99518 7.20686 6.92013 7.8276 6.87636H8.65726V7.30786C8.68381 7.61044 8.67177 7.91539 8.62145 8.21464V8.19588Z" fill="#036DF6"/>
</svg>
