<svg width="14" height="13" viewBox="0 0 14 13" fill="none" xmlns="http://www.w3.org/2000/svg">
<path d="M5.90853 9.64258L5.72349 10.6118C5.67249 10.8788 5.44864 11.0711 5.18862 11.0711H4.94292C4.55289 11.0711 4.21711 11.3595 4.14061 11.7601L4.12992 11.8162C4.06242 12.1697 4.32058 12.4996 4.66479 12.4996H9.33407C9.67828 12.4996 9.93644 12.1697 9.86894 11.8162L9.85825 11.7601C9.78175 11.3595 9.44597 11.0711 9.05594 11.0711H8.81024C8.55023 11.0711 8.32637 10.8788 8.27537 10.6118L8.09035 9.64258" stroke="#036DF6" stroke-width="0.8" stroke-linecap="round" stroke-linejoin="round"/>
<path d="M1.12754 8.23311C1.19459 8.95235 1.74191 9.47697 2.43046 9.52079C3.3475 9.57919 4.84071 9.64262 7 9.64262C9.15929 9.64262 10.6525 9.57919 11.5695 9.52079C12.2581 9.47697 12.8054 8.95235 12.8724 8.23311C12.9384 7.52539 13 6.48599 13 5.07131C13 3.65663 12.9384 2.61723 12.8724 1.90951C12.8054 1.19027 12.2581 0.665653 11.5695 0.621817C10.6525 0.563435 9.15929 0.5 7 0.5C4.84071 0.5 3.3475 0.563435 2.43046 0.621817C1.74191 0.665653 1.19459 1.19027 1.12754 1.90951C1.06157 2.61723 1 3.65663 1 5.07131C1 6.48599 1.06157 7.52539 1.12754 8.23311Z" stroke="#036DF6" stroke-width="0.8"/>
<path d="M4.81605 3.35742C4.81605 3.35742 3.17969 4.50025 3.17969 5.07166C3.17969 5.64308 4.81605 6.78591 4.81605 6.78591" stroke="#036DF6" stroke-width="0.8" stroke-linecap="round" stroke-linejoin="round"/>
<path d="M9.18164 3.35742C9.18164 3.35742 10.818 4.50025 10.818 5.07166C10.818 5.64308 9.18164 6.78591 9.18164 6.78591" stroke="#036DF6" stroke-width="0.8" stroke-linecap="round" stroke-linejoin="round"/>
<path d="M7.54403 3.07031L6.45312 7.07021" stroke="#036DF6" stroke-width="0.8" stroke-linecap="round" stroke-linejoin="round"/>
</svg>
