<svg width="15" height="16" viewBox="0 0 15 16" fill="none" xmlns="http://www.w3.org/2000/svg">
<path fill-rule="evenodd" clip-rule="evenodd" d="M14.3265 6.92995C13.9673 6.33038 13.4782 5.86716 12.9151 5.5932C12.1037 5.2867 11.2648 5.10352 10.4171 5.04774C10.3925 5.04026 10.3668 5.04026 10.3422 5.04774V4.52533C10.383 3.50051 10.3622 2.47337 10.2797 1.45234C10.2644 1.23006 10.1872 1.0211 10.0611 0.860785C9.79932 0.649972 9.49873 0.523195 9.18683 0.492026C8.56233 0.407518 7.8379 0.492026 7.40074 0.492026C6.48896 0.415201 5.7333 0.392153 5.00888 0.399836C3.89101 0.399836 2.84808 0.499708 1.44293 0.545803C1.41862 0.545785 1.39454 0.551792 1.37215 0.563466C1.34976 0.57514 1.32951 0.592241 1.31261 0.61375C1.29571 0.635259 1.2825 0.660734 1.27378 0.688658C1.26505 0.716581 1.26099 0.74638 1.26183 0.776278C1.26345 0.834024 1.28324 0.888738 1.31703 0.928872C1.35082 0.969006 1.39596 0.991422 1.44293 0.991387C2.84808 0.991387 3.88476 0.991387 4.99639 1.06053C5.70832 1.06053 6.45149 1.15272 7.34454 1.28332C7.77545 1.32942 8.50612 1.22954 9.10565 1.32942C9.87379 1.45234 9.63023 1.59062 9.66771 2.53557C9.71767 3.81086 9.70518 5.86977 9.66771 7.82112C9.62399 9.43444 9.54905 10.994 9.45537 11.9927L9.3617 12.1694C8.89332 12.1694 8.43118 12.1079 7.95655 12.0926H7.33205C7.11347 12.0926 6.90113 12.0926 6.70754 12.1387C6.20793 12.2001 5.72081 12.3077 5.22121 12.3692C5.17994 12.3747 5.14194 12.3994 5.11504 12.4383C5.00344 12.0903 4.81741 11.7859 4.57664 11.5573C4.33587 11.3287 4.04933 11.1845 3.74737 11.14C3.4929 11.1093 3.23603 11.1455 2.99379 11.2461C2.75155 11.3468 2.52946 11.5096 2.34223 11.7238C2.14053 11.9309 1.98983 12.2032 1.90708 12.5099C1.82433 12.8166 1.81282 13.1457 1.87384 13.4601C1.96286 13.9116 2.18553 14.306 2.49835 14.5663C2.78435 14.7715 3.10066 14.9047 3.42887 14.9581C3.44789 14.9902 3.47216 15.0171 3.50013 15.0369C3.5281 15.0568 3.55913 15.0692 3.59124 15.0734C3.79601 15.111 4.005 15.0924 4.20327 15.0191C4.40153 14.9457 4.58417 14.8194 4.73812 14.6491C4.89207 14.4788 5.01352 14.2687 5.09379 14.034C5.17407 13.7992 5.21118 13.5455 5.20247 13.291C5.20165 13.1417 5.1912 12.9927 5.17125 12.8455H5.20872C5.70832 12.8916 6.20169 12.953 6.70754 12.9761H7.33205L7.95655 12.9223C8.36248 12.8762 8.76217 12.8147 9.16185 12.7533C9.11504 12.9854 9.11504 13.228 9.16185 13.4601C9.25087 13.9116 9.47354 14.306 9.78636 14.5663C10.0749 14.7708 10.3931 14.9039 10.7231 14.9581C10.7415 14.991 10.7657 15.0183 10.7938 15.0383C10.8218 15.0582 10.8532 15.0702 10.8855 15.0734C11.0893 15.1085 11.2969 15.0881 11.4936 15.0136C11.6903 14.9391 11.8713 14.8124 12.0238 14.6424C12.1763 14.4723 12.2966 14.2632 12.3762 14.0297C12.4557 13.7962 12.4926 13.544 12.4842 13.291C12.5088 13.2985 12.5346 13.2985 12.5592 13.291C12.8476 13.2849 13.1354 13.2567 13.421 13.2065C13.6456 13.1695 13.8598 13.0668 14.0455 12.9069C14.3775 12.5368 14.6354 12.0772 14.799 11.5641C14.9626 11.051 15.0275 10.4983 14.9885 9.94917C14.998 8.88699 14.7689 7.8422 14.3265 6.92995ZM3.62871 14.6124C3.60659 14.5864 3.57801 14.5701 3.54753 14.5663C3.26457 14.5015 2.99623 14.3626 2.76065 14.1592C2.55919 13.9541 2.42768 13.6635 2.39219 13.3448C2.3765 13.1548 2.40377 12.9632 2.47099 12.791C2.53821 12.6188 2.64277 12.4729 2.77314 12.3692C2.89165 12.2365 3.03077 12.1348 3.1821 12.0701C3.33344 12.0054 3.49386 11.9791 3.65369 11.9927C3.92038 12.0319 4.16634 12.1892 4.34563 12.4352C4.52492 12.6812 4.62527 12.9991 4.62793 13.3295C4.63906 13.495 4.62096 13.6616 4.57486 13.8178C4.52876 13.974 4.45575 14.116 4.36085 14.2343C4.26594 14.3525 4.15137 14.444 4.025 14.5027C3.89863 14.5613 3.76344 14.5857 3.62871 14.574V14.6124ZM10.9667 14.6124C10.9452 14.5853 10.9163 14.5689 10.8855 14.5663C10.6048 14.5 10.3388 14.3612 10.1049 14.1592C9.90155 13.9549 9.76785 13.6644 9.73016 13.3448C9.71721 13.1544 9.74636 12.9631 9.81452 12.7914C9.88268 12.6196 9.98732 12.4737 10.1174 12.3692C10.2343 12.236 10.3723 12.1338 10.5227 12.0691C10.6731 12.0043 10.8327 11.9783 10.9917 11.9927C11.2595 12.0302 11.5069 12.1867 11.6875 12.4329C11.8681 12.679 11.9693 12.9979 11.9721 13.3295C11.9813 13.4951 11.9616 13.6613 11.9144 13.8169C11.8672 13.9725 11.7935 14.1139 11.6984 14.2317C11.6032 14.3494 11.4887 14.4409 11.3625 14.4999C11.2364 14.559 11.1014 14.5842 10.9667 14.574V14.6124ZM13.7895 12.3692C13.6676 12.4824 13.5268 12.5611 13.3773 12.5996C13.1136 12.6672 12.8465 12.7134 12.5779 12.7379C12.5512 12.7486 12.5259 12.7641 12.503 12.784C12.4396 12.3571 12.2685 11.9656 12.014 11.665C11.7596 11.3643 11.4347 11.1699 11.0853 11.1092C10.6832 11.0553 10.2785 11.1777 9.94249 11.4549C10.1049 9.87234 10.261 7.49845 10.3359 5.43186H10.3672L10.9604 5.57015L10.8293 6.86081C10.7918 7.24493 10.7419 7.58296 10.7356 7.86721C10.7222 8.17459 10.795 8.47832 10.9417 8.72765C11.078 8.89784 11.2418 9.03092 11.4225 9.11827C11.6032 9.20561 11.7969 9.24528 11.9909 9.2347H12.6154H13.1462C13.3219 9.22303 13.4971 9.19995 13.6708 9.16555C13.7244 9.15782 13.7734 9.12452 13.8073 9.0728C13.8412 9.02108 13.8572 8.95508 13.8519 8.88898C13.8496 8.85665 13.842 8.8252 13.8298 8.79646C13.8175 8.76773 13.8007 8.74227 13.7804 8.72155C13.76 8.70084 13.7366 8.68528 13.7114 8.67578C13.6861 8.66628 13.6596 8.66302 13.6333 8.66619C13.4733 8.68165 13.3125 8.68165 13.1525 8.66619C12.9901 8.66619 12.8277 8.6201 12.6653 8.58937L12.0408 8.45108C11.7411 8.40499 11.5662 8.33584 11.4788 8.19756C11.4049 8.04209 11.3722 7.86221 11.3851 7.68283V6.86849L11.3414 5.64697C11.8123 5.74732 12.2715 5.91758 12.7091 6.15402C13.1584 6.41731 13.5391 6.82973 13.8082 7.3448C14.0291 7.7956 14.1795 8.29329 14.2516 8.81216C14.3468 9.37525 14.3846 9.95076 14.364 10.5254C14.3737 10.8644 14.3279 11.2024 14.2292 11.5191C14.1304 11.8359 13.9809 12.125 13.7895 12.3692Z" fill="#036DF6"/>
<path fill-rule="evenodd" clip-rule="evenodd" d="M8.99292 10.4403C6.49488 10.0101 6.25133 9.77192 3.84697 9.81033C2.77069 9.79273 1.69736 9.95293 0.655734 10.2866C0.655734 9.56449 0.655734 8.60418 0.686959 7.55936V5.95372C0.686959 5.1317 0.655734 4.30967 0.686959 3.56447C0.718184 2.81927 0.686959 2.1048 0.730675 1.57471C0.734174 1.54584 0.732862 1.5164 0.726818 1.48818C0.720775 1.45996 0.710126 1.43355 0.69552 1.41055C0.680915 1.38755 0.662658 1.36845 0.641861 1.35441C0.621064 1.34036 0.598161 1.33167 0.574548 1.32887C0.52773 1.32424 0.481207 1.34141 0.444195 1.37698C0.407183 1.41255 0.382382 1.46393 0.374705 1.52093C0.172456 3.18561 0.0473524 4.86311 0 6.54527L0 8.56577C0.0312254 10.1023 0.112411 11.3852 0.149882 11.6388C0.171174 11.7741 0.217061 11.9017 0.284112 12.0121C0.351162 12.1226 0.43764 12.2129 0.537077 12.2764C0.890755 12.4714 1.27362 12.5735 1.66119 12.576C1.69043 12.5773 1.71954 12.5708 1.7466 12.5572C1.77366 12.5435 1.79804 12.5229 1.81813 12.4967C1.83822 12.4706 1.85354 12.4394 1.86309 12.4054C1.87265 12.3714 1.8762 12.3353 1.87352 12.2995C1.87218 12.2333 1.85106 12.1701 1.81418 12.1219C1.77731 12.0737 1.72728 12.0439 1.67368 12.0383C1.44621 12.0203 1.22159 11.966 1.00546 11.8769C0.843086 11.8001 0.674469 11.7079 0.655734 11.5158C0.642478 11.26 0.642478 11.0034 0.655734 10.7476C1.43054 10.6311 2.21091 10.5798 2.99139 10.5939H3.94065L5.36452 10.6554C6.56983 10.7169 7.76888 10.7937 8.9492 10.8936C9.00355 10.898 9.0572 10.8765 9.09904 10.8336C9.14089 10.7907 9.16773 10.7296 9.17402 10.6631C9.16767 10.6068 9.14654 10.5545 9.11385 10.5143C9.08117 10.4741 9.0387 10.4481 8.99292 10.4403Z" fill="#036DF6"/>
<path fill-rule="evenodd" clip-rule="evenodd" d="M2.26547 8.90284C2.26831 8.86965 2.26831 8.83617 2.26547 8.80297C2.26544 8.51043 2.25293 8.2181 2.22799 7.92717C2.19052 7.52 2.13432 7.12051 2.09685 6.71334C2.4091 6.71334 2.72136 6.71334 3.02112 6.76711H3.16476V6.82089C3.15539 6.87146 3.15539 6.92397 3.16476 6.97454C3.15823 7.02287 3.15823 7.07218 3.16476 7.12051C3.33962 7.68901 3.40831 7.68901 3.49575 7.68901C3.58318 7.68901 3.70183 7.68901 3.808 7.06673C3.81078 7.01557 3.81078 6.96424 3.808 6.91308C3.81385 6.86727 3.81385 6.82061 3.808 6.7748C4.14523 6.7748 4.47622 6.73638 4.80721 6.71334C4.80721 7.12051 4.76974 7.52768 4.80721 7.94253C4.84468 8.35739 4.84468 8.55713 4.86966 8.85675V8.89516C4.86966 9.44062 5.45046 9.43294 5.49417 8.89516C5.50353 8.69558 5.50353 8.49551 5.49417 8.29593C5.49417 8.10387 5.49417 7.90412 5.43797 7.71206C5.39425 7.37403 5.32555 7.05137 5.25686 6.7287C5.61907 6.7287 5.96255 6.7287 6.31852 6.79016H6.53086C6.50657 6.87993 6.50657 6.97696 6.53086 7.06673C6.68698 7.66597 6.78066 7.65828 6.86809 7.65828C6.95552 7.65828 7.04295 7.65828 7.1741 7.04368C7.17712 6.99253 7.17712 6.94118 7.1741 6.89003C7.17665 6.85682 7.17665 6.82338 7.1741 6.79016C7.47386 6.79016 7.79861 6.79016 8.07964 6.73638C8.07964 7.14356 8.04216 7.55073 8.07964 7.96558C8.11711 8.38044 8.11711 8.58018 8.14209 8.8798V8.91821C8.26699 9.68646 8.67916 10.0245 8.76659 8.91821C8.77596 8.71863 8.77596 8.51855 8.76659 8.31898C8.75711 8.12317 8.73834 7.92822 8.71039 7.73511C8.48557 6.12179 8.6292 6.19861 7.19908 6.0296H7.03046C7.07119 5.69876 7.09622 5.36529 7.1054 5.03087V4.43932C7.09835 4.24363 7.08167 4.04865 7.05544 3.85545C6.82437 2.21908 6.99299 2.31895 5.53789 2.14226C5.28218 2.11925 5.02545 2.11925 4.76974 2.14226C4.32867 2.15965 3.8907 2.23956 3.46452 2.38041C3.41931 2.39328 3.37958 2.42634 3.35305 2.47317C3.32651 2.52001 3.31505 2.5773 3.32088 2.63394C3.32088 2.63394 3.32088 2.68771 3.32088 2.71844C3.27092 3.14866 3.23345 3.57888 3.21472 4.01678V4.56992C3.21472 4.7543 3.21472 4.931 3.25219 5.11538C3.28966 5.29976 3.32713 5.66852 3.3646 5.93741H3.12104C2.6964 5.99306 2.27773 6.10379 1.87203 6.26775C1.82566 6.27897 1.78445 6.31132 1.75665 6.35834C1.72886 6.40535 1.71653 6.46355 1.72214 6.52127C1.71657 6.54642 1.71657 6.57295 1.72214 6.5981C1.67843 7.036 1.63471 7.45854 1.61598 7.89644V8.44958C1.60978 8.59288 1.60978 8.73649 1.61598 8.8798C1.74088 9.59427 2.10309 9.64805 2.26547 8.90284ZM4.63235 2.87209H4.77599V2.92587C4.76956 2.9845 4.76956 3.04393 4.77599 3.10257C4.76989 3.15866 4.76989 3.21549 4.77599 3.27158C4.90089 3.91691 4.99457 3.91691 5.10073 3.91691C5.2069 3.91691 5.27559 3.91691 5.40674 3.27158C5.41281 3.21806 5.41281 3.16377 5.40674 3.11025C5.41323 3.0542 5.41323 2.99729 5.40674 2.94124V2.89514C5.75022 2.89514 6.08745 2.89514 6.43093 2.826C6.43093 3.23317 6.39346 3.64802 6.43093 4.06288C6.4684 4.47773 6.4684 4.6698 6.49963 4.97709C6.53086 5.28439 6.56208 5.63011 6.58706 5.95277H6.46216C6.03125 5.95277 4.30136 6.0296 3.96413 5.95277H3.85796C3.88919 5.59938 3.92666 5.24598 3.9329 4.89259C3.93078 4.59991 3.91619 4.30758 3.88919 4.01678C3.808 3.62498 3.74555 3.22549 3.74555 2.81063C4.02033 2.81832 4.32634 2.84905 4.63235 2.87209Z" fill="#036DF6"/>
</svg>
