<svg width="51" height="57" viewBox="0 0 51 57" fill="none" xmlns="http://www.w3.org/2000/svg">
<path d="M12.5755 20.4301H10.2255M21.9753 20.4301H19.6254M12.5755 12.5315H10.2255M21.9753 12.5315H19.6254M40.7751 36.2273H38.4251M40.7751 25.6958H38.4251M30.2002 17.7972V54.6574H39.6001C44.0322 54.6574 46.2458 54.6574 47.6229 53.1145C49 51.5717 49 49.0915 49 44.1259V28.3287C49 23.3631 49 20.8829 47.6229 19.3401C46.2458 17.7972 44.0322 17.7972 39.6001 17.7972H30.2002ZM30.2002 17.7972C30.2002 10.3515 30.2002 6.62595 28.1346 4.31429C26.0713 2 22.7461 2 16.1004 2C9.4547 2 6.12949 2 4.06622 4.31429C2.0006 6.62595 2.0006 10.3515 2.0006 17.7972V25.6958M11.6613 31.6329C12.0961 31.1854 12.3123 30.9616 12.5755 30.9616C12.8387 30.9616 13.0549 31.1854 13.4896 31.6329L15.1651 33.3627C15.3672 33.5707 15.4683 33.6761 15.5928 33.7261C15.7197 33.7787 15.856 33.7735 16.1333 33.7603L18.394 33.6603C18.9768 33.6339 19.2682 33.6234 19.4679 33.8103C19.6677 33.9973 19.7076 34.3211 19.7852 34.9688L20.0954 37.5648C20.133 37.8649 20.1494 38.0124 20.2152 38.144C20.281 38.2704 20.3868 38.3626 20.5983 38.5495L22.4218 40.1555C22.873 40.5557 23.0986 40.7532 23.1433 41.0376C23.1879 41.3219 23.0352 41.5957 22.732 42.1434L21.4983 44.3734C21.3573 44.6288 21.2868 44.7578 21.2633 44.9C21.2398 45.0422 21.268 45.1922 21.3244 45.4871L21.8132 48.0621C21.9354 48.6939 21.9941 49.0099 21.8649 49.2626C21.7356 49.5154 21.4607 49.6154 20.9132 49.8155L18.7371 50.608C18.4786 50.7028 18.3493 50.7502 18.2459 50.845C18.1449 50.9424 18.0814 51.0793 17.9569 51.3505L16.8947 53.6437C16.6245 54.2309 16.4882 54.5231 16.2414 54.6232C15.9947 54.7232 15.7244 54.5968 15.1792 54.3441L13.0925 53.3752C12.8363 53.2567 12.7094 53.1961 12.5755 53.1961C12.4415 53.1961 12.3146 53.2567 12.0585 53.3752L9.9717 54.3441C9.4265 54.5968 9.15626 54.7232 8.90951 54.6232C8.66276 54.5231 8.52646 54.2282 8.25622 53.6437L7.19403 51.3505C7.06713 51.0793 7.00603 50.9424 6.90498 50.8476C6.80394 50.7528 6.67234 50.7028 6.41384 50.6107L4.23777 49.8155C3.69023 49.6154 3.41528 49.5154 3.28603 49.2626C3.15678 49.0099 3.21553 48.6966 3.33773 48.0621L3.82652 45.4871C3.88292 45.1922 3.91112 45.0448 3.88762 44.9026C3.83943 44.7121 3.75972 44.5335 3.65263 44.376L2.41654 42.1434C2.11575 41.5957 1.963 41.3219 2.00765 41.0376C2.0523 40.7532 2.27789 40.5557 2.72909 40.1582L4.55266 38.5521C4.76416 38.3626 4.86991 38.2704 4.93571 38.1414C5.00151 38.0124 5.01796 37.8649 5.05321 37.5622L5.36575 34.9688C5.4433 34.3237 5.48325 33.9973 5.683 33.8103C5.88275 33.6234 6.17414 33.6339 6.75694 33.6603L9.01996 33.7603C9.2949 33.7735 9.4312 33.7787 9.5581 33.7261C9.68265 33.6734 9.7837 33.5707 9.9858 33.3627L11.6613 31.6329Z" stroke="white" stroke-width="3.52496" stroke-linecap="round" stroke-linejoin="round"/>
</svg>
