<svg width="134" height="109" viewBox="0 0 134 109" fill="none" xmlns="http://www.w3.org/2000/svg">
<path d="M130.645 44.5437C130.645 52.4778 123.635 59.233 114.573 59.233C105.512 59.233 98.502 52.4778 98.502 44.5437C98.502 36.6096 105.512 29.8544 114.573 29.8544C123.635 29.8544 130.645 36.6096 130.645 44.5437Z" stroke="#222222" stroke-width="5"/>
<ellipse cx="114.443" cy="44.5404" rx="3.71429" ry="3.43786" fill="#222222"/>
<ellipse cx="40.1136" cy="65.1714" rx="11.1429" ry="10.3136" fill="#222222"/>
<path d="M40.1426 65.1694C69.3908 65.1694 77.0469 25.199 77.2799 4.2735C77.286 3.72125 76.8377 3.28796 76.2854 3.28796H62.4283" stroke="#222222" stroke-width="5" stroke-linecap="round"/>
<path d="M40.1426 65.1694C10.8943 65.1694 3.23822 25.199 3.00526 4.2735C2.99911 3.72125 3.44743 3.28796 3.99972 3.28796H17.8569" stroke="#222222" stroke-width="5" stroke-linecap="round"/>
<path d="M114.428 58.2949V70.4249C114.428 90.3072 98.3105 106.425 78.4283 106.425H76.1426C56.2603 106.425 40.1426 90.3072 40.1426 70.4249V65.1706" stroke="#222222" stroke-width="5" stroke-linecap="round"/>
</svg>
